<svg width="151" height="151" viewBox="0 0 151 151" fill="none" xmlns="http://www.w3.org/2000/svg">
<path opacity="0.4" d="M105.625 12.4375H45.375C32.125 12.4375 21.25 23.3125 21.25 36.5625V124.625C21.25 135.875 29.3125 140.625 39.1875 135.188L69.6875 118.25C72.9375 116.438 78.1875 116.438 81.375 118.25L111.875 135.188C121.75 140.688 129.813 135.938 129.813 124.625V36.5625C129.75 23.3125 118.938 12.4375 105.625 12.4375Z" fill="#D6FF93"/>
<path d="M69.8125 83.3125C68.625 83.3125 67.4375 82.875 66.5 81.9375L57.125 72.5625C55.3125 70.75 55.3125 67.75 57.125 65.9375C58.9375 64.125 61.9375 64.125 63.75 65.9375L69.8125 72L91.5 50.3125C93.3125 48.5 96.3125 48.5 98.125 50.3125C99.9375 52.125 99.9375 55.125 98.125 56.9375L73.125 81.9375C72.1875 82.875 71 83.3125 69.8125 83.3125Z" fill="#D6FF93"/>
</svg>
