<svg width="20" height="21" viewBox="0 0 20 21" fill="none" xmlns="http://www.w3.org/2000/svg">
<path opacity="0.4" d="M10 4.91675V18.2751C10.1417 18.2751 10.2917 18.2501 10.4083 18.1834L10.4417 18.1668C12.0417 17.2918 14.8333 16.3751 16.6416 16.1334L16.8833 16.1001C17.6833 16.0001 18.3333 15.2501 18.3333 14.4501V4.3834C18.3333 3.39173 17.525 2.64174 16.5334 2.72508C14.7834 2.86674 12.1334 3.7501 10.65 4.6751L10.4417 4.80007C10.3167 4.87507 10.1583 4.91675 10 4.91675Z" fill="white"/>
<path d="M1.66675 4.39176V14.4501C1.66675 15.2501 2.31674 16.0001 3.11674 16.1001L3.39175 16.1335C5.20842 16.3751 8.00844 17.3001 9.60844 18.1834C9.71677 18.2501 9.85008 18.2751 10.0001 18.2751V4.91677C9.84175 4.91677 9.68339 4.87509 9.55839 4.80009L9.41674 4.70843C7.9334 3.7751 5.27506 2.88344 3.52507 2.73344H3.47507C2.4834 2.65011 1.66675 3.39176 1.66675 4.39176Z" fill="white"/>
<path d="M15.8333 2.81689V6.39188C15.8333 6.72521 15.4666 6.9252 15.1833 6.74186L14.1667 6.06686L13.15 6.74186C12.875 6.9252 12.5 6.72521 12.5 6.39188V3.76686C13.5917 3.33352 14.8083 2.98356 15.8333 2.81689Z" fill="white"/>
</svg>
