<svg width="20" height="21" viewBox="0 0 20 21" fill="none" xmlns="http://www.w3.org/2000/svg">
<path d="M13.9583 3.68013V2.38013C13.9583 2.03846 13.675 1.75513 13.3333 1.75513C12.9917 1.75513 12.7083 2.03846 12.7083 2.38013V3.63013H7.29165V2.38013C7.29165 2.03846 7.00832 1.75513 6.66665 1.75513C6.32499 1.75513 6.04165 2.03846 6.04165 2.38013V3.68013C3.79165 3.88846 2.69999 5.23013 2.53332 7.22179C2.51665 7.46346 2.71665 7.66346 2.94999 7.66346H17.05C17.2917 7.66346 17.4917 7.45513 17.4667 7.22179C17.3 5.23013 16.2083 3.88846 13.9583 3.68013Z" fill="white"/>
<path d="M16.6667 8.91345H3.33333C2.875 8.91345 2.5 9.28845 2.5 9.74679V14.8801C2.5 17.3801 3.75 19.0468 6.66667 19.0468H13.3333C16.25 19.0468 17.5 17.3801 17.5 14.8801V9.74679C17.5 9.28845 17.125 8.91345 16.6667 8.91345ZM7.675 15.8885C7.63333 15.9218 7.59167 15.9635 7.55 15.9885C7.5 16.0218 7.45 16.0468 7.4 16.0635C7.35 16.0885 7.3 16.1051 7.25 16.1135C7.19167 16.1218 7.14167 16.1301 7.08333 16.1301C6.975 16.1301 6.86667 16.1051 6.76667 16.0635C6.65833 16.0218 6.575 15.9635 6.49167 15.8885C6.34167 15.7301 6.25 15.5135 6.25 15.2968C6.25 15.0801 6.34167 14.8635 6.49167 14.7051C6.575 14.6301 6.65833 14.5718 6.76667 14.5301C6.91667 14.4635 7.08333 14.4468 7.25 14.4801C7.3 14.4885 7.35 14.5051 7.4 14.5301C7.45 14.5468 7.5 14.5718 7.55 14.6051C7.59167 14.6385 7.63333 14.6718 7.675 14.7051C7.825 14.8635 7.91667 15.0801 7.91667 15.2968C7.91667 15.5135 7.825 15.7301 7.675 15.8885ZM7.675 12.9718C7.51667 13.1218 7.3 13.2135 7.08333 13.2135C6.86667 13.2135 6.65 13.1218 6.49167 12.9718C6.34167 12.8135 6.25 12.5968 6.25 12.3801C6.25 12.1635 6.34167 11.9468 6.49167 11.7885C6.725 11.5551 7.09167 11.4801 7.4 11.6135C7.50833 11.6551 7.6 11.7135 7.675 11.7885C7.825 11.9468 7.91667 12.1635 7.91667 12.3801C7.91667 12.5968 7.825 12.8135 7.675 12.9718ZM10.5917 15.8885C10.4333 16.0385 10.2167 16.1301 10 16.1301C9.78333 16.1301 9.56667 16.0385 9.40833 15.8885C9.25833 15.7301 9.16667 15.5135 9.16667 15.2968C9.16667 15.0801 9.25833 14.8635 9.40833 14.7051C9.71667 14.3968 10.2833 14.3968 10.5917 14.7051C10.7417 14.8635 10.8333 15.0801 10.8333 15.2968C10.8333 15.5135 10.7417 15.7301 10.5917 15.8885ZM10.5917 12.9718C10.55 13.0051 10.5083 13.0385 10.4667 13.0718C10.4167 13.1051 10.3667 13.1301 10.3167 13.1468C10.2667 13.1718 10.2167 13.1885 10.1667 13.1968C10.1083 13.2051 10.0583 13.2135 10 13.2135C9.78333 13.2135 9.56667 13.1218 9.40833 12.9718C9.25833 12.8135 9.16667 12.5968 9.16667 12.3801C9.16667 12.1635 9.25833 11.9468 9.40833 11.7885C9.48333 11.7135 9.575 11.6551 9.68333 11.6135C9.99167 11.4801 10.3583 11.5551 10.5917 11.7885C10.7417 11.9468 10.8333 12.1635 10.8333 12.3801C10.8333 12.5968 10.7417 12.8135 10.5917 12.9718ZM13.5083 15.8885C13.35 16.0385 13.1333 16.1301 12.9167 16.1301C12.7 16.1301 12.4833 16.0385 12.325 15.8885C12.175 15.7301 12.0833 15.5135 12.0833 15.2968C12.0833 15.0801 12.175 14.8635 12.325 14.7051C12.6333 14.3968 13.2 14.3968 13.5083 14.7051C13.6583 14.8635 13.75 15.0801 13.75 15.2968C13.75 15.5135 13.6583 15.7301 13.5083 15.8885ZM13.5083 12.9718C13.4667 13.0051 13.425 13.0385 13.3833 13.0718C13.3333 13.1051 13.2833 13.1301 13.2333 13.1468C13.1833 13.1718 13.1333 13.1885 13.0833 13.1968C13.025 13.2051 12.9667 13.2135 12.9167 13.2135C12.7 13.2135 12.4833 13.1218 12.325 12.9718C12.175 12.8135 12.0833 12.5968 12.0833 12.3801C12.0833 12.1635 12.175 11.9468 12.325 11.7885C12.4083 11.7135 12.4917 11.6551 12.6 11.6135C12.75 11.5468 12.9167 11.5301 13.0833 11.5635C13.1333 11.5718 13.1833 11.5885 13.2333 11.6135C13.2833 11.6301 13.3333 11.6551 13.3833 11.6885C13.425 11.7218 13.4667 11.7551 13.5083 11.7885C13.6583 11.9468 13.75 12.1635 13.75 12.3801C13.75 12.5968 13.6583 12.8135 13.5083 12.9718Z" fill="white"/>
</svg>
