<svg width="20" height="21" viewBox="0 0 20 21" fill="none" xmlns="http://www.w3.org/2000/svg">
<path d="M9.99996 2.38013C5.40829 2.38013 1.66663 6.12179 1.66663 10.7135C1.66663 15.3051 5.40829 19.0468 9.99996 19.0468C14.5916 19.0468 18.3333 15.3051 18.3333 10.7135C18.3333 6.12179 14.5916 2.38013 9.99996 2.38013ZM13.625 13.6885C13.5083 13.8885 13.3 13.9968 13.0833 13.9968C12.975 13.9968 12.8666 13.9718 12.7666 13.9051L10.1833 12.3635C9.54163 11.9801 9.06663 11.1385 9.06663 10.3968V6.98013C9.06663 6.63846 9.34996 6.35513 9.69163 6.35513C10.0333 6.35513 10.3166 6.63846 10.3166 6.98013V10.3968C10.3166 10.6968 10.5666 11.1385 10.825 11.2885L13.4083 12.8301C13.7083 13.0051 13.8083 13.3885 13.625 13.6885Z" fill="white"/>
</svg>
