<svg width="20" height="21" viewBox="0 0 20 21" fill="none" xmlns="http://www.w3.org/2000/svg">
<path d="M18.1333 13.7667L12.8 4.16675C12.0833 2.87508 11.0916 2.16675 9.99998 2.16675C8.90831 2.16675 7.91665 2.87508 7.19998 4.16675L1.86665 13.7667C1.19165 14.9917 1.11665 16.1667 1.65831 17.0917C2.19998 18.0167 3.26665 18.5251 4.66665 18.5251H15.3333C16.7333 18.5251 17.8 18.0167 18.3416 17.0917C18.8833 16.1667 18.8083 14.9834 18.1333 13.7667ZM9.37498 8.00008C9.37498 7.65841 9.65831 7.37508 9.99998 7.37508C10.3416 7.37508 10.625 7.65841 10.625 8.00008V12.1667C10.625 12.5084 10.3416 12.7917 9.99998 12.7917C9.65831 12.7917 9.37498 12.5084 9.37498 12.1667V8.00008ZM10.5916 15.2584C10.55 15.2917 10.5083 15.3251 10.4666 15.3584C10.4166 15.3917 10.3666 15.4167 10.3166 15.4334C10.2666 15.4584 10.2166 15.4751 10.1583 15.4834C10.1083 15.4917 10.05 15.5001 9.99998 15.5001C9.94998 15.5001 9.89165 15.4917 9.83331 15.4834C9.78331 15.4751 9.73331 15.4584 9.68331 15.4334C9.63331 15.4167 9.58331 15.3917 9.53331 15.3584C9.49165 15.3251 9.44998 15.2917 9.40831 15.2584C9.25831 15.1001 9.16665 14.8834 9.16665 14.6667C9.16665 14.4501 9.25831 14.2334 9.40831 14.0751C9.44998 14.0417 9.49165 14.0084 9.53331 13.9751C9.58331 13.9417 9.63331 13.9167 9.68331 13.9001C9.73331 13.8751 9.78331 13.8584 9.83331 13.8501C9.94165 13.8251 10.0583 13.8251 10.1583 13.8501C10.2166 13.8584 10.2666 13.8751 10.3166 13.9001C10.3666 13.9167 10.4166 13.9417 10.4666 13.9751C10.5083 14.0084 10.55 14.0417 10.5916 14.0751C10.7416 14.2334 10.8333 14.4501 10.8333 14.6667C10.8333 14.8834 10.7416 15.1001 10.5916 15.2584Z" fill="#FF5858"/>
</svg>
