<svg width="40" height="40" viewBox="0 0 40 40" fill="none" xmlns="http://www.w3.org/2000/svg">
<path d="M30.0333 20.55L27.9999 18.5167C27.5166 18.1 27.2333 17.4833 27.2166 16.8C27.1833 16.05 27.4833 15.3 28.0333 14.75L30.0333 12.75C31.7666 11.0167 32.4166 9.35 31.8666 8.03334C31.3333 6.73334 29.6833 6.01667 27.2499 6.01667H9.83325V4.58334C9.83325 3.9 9.26659 3.33334 8.58325 3.33334C7.89992 3.33334 7.33325 3.9 7.33325 4.58334V35.4167C7.33325 36.1 7.89992 36.6667 8.58325 36.6667C9.26659 36.6667 9.83325 36.1 9.83325 35.4167V27.2833H27.2499C29.6499 27.2833 31.2666 26.55 31.8166 25.2333C32.3666 23.9167 31.7333 22.2667 30.0333 20.55Z" fill="white"/>
</svg>
