<svg width="20" height="21" viewBox="0 0 20 21" fill="none" xmlns="http://www.w3.org/2000/svg">
<path opacity="0.4" d="M16.7 6.18324L11.9 2.82491C10.5917 1.90824 8.58333 1.95824 7.32499 2.93324L3.14999 6.19157C2.31666 6.84157 1.65833 8.17491 1.65833 9.22491V14.9749C1.65833 17.0999 3.38333 18.8332 5.50833 18.8332H14.4917C16.6167 18.8332 18.3417 17.1082 18.3417 14.9832V9.33324C18.3417 8.20824 17.6167 6.82491 16.7 6.18324Z" fill="white"/>
<path d="M10 16.125C9.65833 16.125 9.375 15.8417 9.375 15.5V13C9.375 12.6583 9.65833 12.375 10 12.375C10.3417 12.375 10.625 12.6583 10.625 13V15.5C10.625 15.8417 10.3417 16.125 10 16.125Z" fill="white"/>
</svg>
