<svg width="20" height="21" viewBox="0 0 20 21" fill="none" xmlns="http://www.w3.org/2000/svg">
<path d="M13.4916 2.38013H6.50829C3.47496 2.38013 1.66663 4.18846 1.66663 7.22179V14.1968C1.66663 17.2385 3.47496 19.0468 6.50829 19.0468H13.4833C16.5166 19.0468 18.325 17.2385 18.325 14.2051V7.22179C18.3333 4.18846 16.525 2.38013 13.4916 2.38013ZM14.1666 15.0885H5.83329C5.49163 15.0885 5.20829 14.8051 5.20829 14.4635C5.20829 14.1218 5.49163 13.8385 5.83329 13.8385H14.1666C14.5083 13.8385 14.7916 14.1218 14.7916 14.4635C14.7916 14.8051 14.5083 15.0885 14.1666 15.0885ZM14.1666 11.3385H5.83329C5.49163 11.3385 5.20829 11.0551 5.20829 10.7135C5.20829 10.3718 5.49163 10.0885 5.83329 10.0885H14.1666C14.5083 10.0885 14.7916 10.3718 14.7916 10.7135C14.7916 11.0551 14.5083 11.3385 14.1666 11.3385ZM14.1666 7.58846H5.83329C5.49163 7.58846 5.20829 7.30513 5.20829 6.96346C5.20829 6.62179 5.49163 6.33846 5.83329 6.33846H14.1666C14.5083 6.33846 14.7916 6.62179 14.7916 6.96346C14.7916 7.30513 14.5083 7.58846 14.1666 7.58846Z" fill="white"/>
</svg>
