<svg width="21" height="21" viewBox="0 0 21 21" fill="none" xmlns="http://www.w3.org/2000/svg">
<path opacity="0.4" d="M18 2.1665V12.2498C18 13.8332 17.1667 14.6665 15.5833 14.6665H5.41666C3.83333 14.6665 3 13.8332 3 12.2498V2.1665H18Z" fill="white"/>
<path d="M18.8334 2.7915H2.16675C1.82508 2.7915 1.54175 2.50817 1.54175 2.1665C1.54175 1.82484 1.82508 1.5415 2.16675 1.5415H18.8334C19.1751 1.5415 19.4584 1.82484 19.4584 2.1665C19.4584 2.50817 19.1751 2.7915 18.8334 2.7915Z" fill="white"/>
<path d="M14.3917 19.1165C14.2833 19.3332 14.0583 19.4582 13.8333 19.4582C13.7416 19.4582 13.6417 19.4332 13.5583 19.3915L10.5 17.8665L7.44163 19.3915C7.3583 19.4332 7.25831 19.4582 7.16664 19.4582C6.94164 19.4582 6.71663 19.3332 6.6083 19.1165C6.44997 18.7998 6.57499 18.4248 6.89166 18.2748L9.87498 16.7832V14.6665H11.125V16.7832L14.1083 18.2748C14.425 18.4248 14.55 18.7998 14.3917 19.1165Z" fill="white"/>
</svg>
