<svg width="20" height="21" viewBox="0 0 20 21" fill="none" xmlns="http://www.w3.org/2000/svg">
<path d="M18.3333 3.00513H1.66663C1.32496 3.00513 1.04163 2.72179 1.04163 2.38013C1.04163 2.03846 1.32496 1.75513 1.66663 1.75513H18.3333C18.675 1.75513 18.9583 2.03846 18.9583 2.38013C18.9583 2.72179 18.675 3.00513 18.3333 3.00513Z" fill="white"/>
<path d="M13.8916 19.3301C13.7833 19.5468 13.5583 19.6718 13.3333 19.6718C13.2416 19.6718 13.1416 19.6468 13.0583 19.6051L9.99997 18.0801L6.94164 19.6051C6.8583 19.6468 6.7583 19.6718 6.66664 19.6718C6.44164 19.6718 6.21664 19.5468 6.1083 19.3301C5.94997 19.0135 6.07497 18.6385 6.39164 18.4885L9.37497 16.9968V14.8801H10.625V16.9968L13.6083 18.4885C13.925 18.6385 14.05 19.0135 13.8916 19.3301Z" fill="white"/>
<path d="M2.5 2.38013V12.4635C2.5 14.0468 3.33333 14.8801 4.91667 14.8801H15.0833C16.6667 14.8801 17.5 14.0468 17.5 12.4635V2.38013H2.5ZM14.15 7.86346L11.525 10.0551C11.2833 10.2551 10.975 10.3385 10.6833 10.2885C10.3833 10.2385 10.125 10.0551 9.96667 9.78846L9.09167 8.33013L6.65 10.3635C6.53333 10.4635 6.39167 10.5051 6.25 10.5051C6.075 10.5051 5.89167 10.4301 5.76667 10.2801C5.54167 10.0135 5.58333 9.62179 5.85 9.39679L8.475 7.20513C8.71667 7.00513 9.025 6.92179 9.31667 6.97179C9.61667 7.02179 9.875 7.20513 10.0333 7.47179L10.9083 8.93013L13.35 6.89679C13.6167 6.67179 14.0083 6.71346 14.2333 6.98013C14.45 7.24679 14.4167 7.63846 14.15 7.86346Z" fill="white"/>
</svg>
