<svg width="20" height="21" viewBox="0 0 20 21" fill="none" xmlns="http://www.w3.org/2000/svg">
<path d="M7.49996 2.38019C5.31663 2.38019 3.54163 4.15519 3.54163 6.33852C3.54163 8.48019 5.21663 10.2135 7.39996 10.2885C7.46663 10.2802 7.53329 10.2802 7.58329 10.2885C7.59996 10.2885 7.60829 10.2885 7.62496 10.2885C7.63329 10.2885 7.63329 10.2885 7.64163 10.2885C9.77496 10.2135 11.45 8.48019 11.4583 6.33852C11.4583 4.15519 9.68329 2.38019 7.49996 2.38019Z" fill="white"/>
<path d="M11.7333 12.5052C9.4083 10.9552 5.61663 10.9552 3.27497 12.5052C2.21663 13.2135 1.6333 14.1718 1.6333 15.1968C1.6333 16.2218 2.21663 17.1718 3.26663 17.8718C4.4333 18.6552 5.96663 19.0468 7.49997 19.0468C9.0333 19.0468 10.5666 18.6552 11.7333 17.8718C12.7833 17.1635 13.3666 16.2135 13.3666 15.1802C13.3583 14.1552 12.7833 13.2052 11.7333 12.5052Z" fill="white"/>
<path d="M16.6583 6.83015C16.7916 8.44682 15.6416 9.86348 14.05 10.0551C14.0416 10.0551 14.0416 10.0551 14.0333 10.0551H14.0083C13.9583 10.0551 13.9083 10.0551 13.8666 10.0718C13.0583 10.1135 12.3166 9.85515 11.7583 9.38015C12.6166 8.61348 13.1083 7.46348 13.0083 6.21348C12.95 5.53848 12.7166 4.92182 12.3666 4.39682C12.6833 4.23848 13.05 4.13848 13.425 4.10515C15.0583 3.96348 16.5166 5.18015 16.6583 6.83015Z" fill="white"/>
<path d="M18.325 14.5385C18.2583 15.3468 17.7417 16.0468 16.875 16.5218C16.0417 16.9802 14.9917 17.1968 13.95 17.1718C14.55 16.6302 14.9 15.9552 14.9667 15.2385C15.05 14.2052 14.5583 13.2135 13.575 12.4218C13.0167 11.9802 12.3667 11.6302 11.6583 11.3718C13.5 10.8385 15.8167 11.1968 17.2417 12.3468C18.0083 12.9635 18.4 13.7385 18.325 14.5385Z" fill="white"/>
</svg>
